<?xml version="1.0" standalone="no"?>
<!DOCTYPE svg PUBLIC "-//W3C//DTD SVG 20010904//EN"
 "http://www.w3.org/TR/2001/REC-SVG-20010904/DTD/svg10.dtd">
<svg version="1.0" xmlns="http://www.w3.org/2000/svg"
 width="200.000000pt" height="200.000000pt" viewBox="0 0 200.000000 200.000000"
 preserveAspectRatio="xMidYMid meet">
<metadata>
Created by potrace 1.14, written by Peter Selinger 2001-2017
</metadata>
<g transform="translate(0.000000,200.000000) scale(0.100000,-0.100000)"
fill="#000000" stroke="none">
<path d="M567 1754 c-3 -3 -11 -6 -19 -8 -30 -4 -118 -41 -118 -48 0 -4 -4 -8
-10 -8 -5 0 -20 -8 -32 -17 -205 -161 -262 -464 -133 -698 30 -54 93 -153 110
-171 5 -7 24 -29 40 -50 39 -50 243 -254 320 -321 33 -28 74 -63 90 -78 98
-85 137 -109 181 -111 54 -3 64 3 285 196 81 71 251 241 308 309 97 115 182
262 206 359 29 116 23 243 -16 337 -7 17 -13 33 -13 36 -2 13 -65 105 -93 135
-45 49 -130 102 -198 123 -64 20 -180 23 -250 7 -46 -11 -146 -70 -186 -111
-31 -30 -39 -34 -50 -22 -46 44 -127 99 -176 118 -55 21 -231 38 -246 23z"/>
</g>
</svg>
